<svg width="17" height="12" viewBox="0 0 17 12" fill="none" xmlns="http://www.w3.org/2000/svg">
<g id="bullion stats-01 1" clip-path="url(#clip0_0_419)">
<g id="Group">
<path id="Vector" d="M6.11742 11.7726C9.26918 11.7726 11.7456 9.29625 11.7456 6.25705C11.7456 3.21784 9.15662 0.741455 6.11742 0.741455C3.07821 0.741455 0.489258 3.21784 0.489258 6.25705C0.489258 9.29625 2.96565 11.7726 6.11742 11.7726Z" fill="#0469CA"/>
<path id="Vector_2" d="M11.1833 11.7726C14.3351 11.7726 16.8115 9.29625 16.8115 6.25705C16.8115 3.21784 14.3351 0.741455 11.1833 0.741455C8.03157 0.741455 5.55518 3.21784 5.55518 6.25705C5.55518 9.29625 8.14413 11.7726 11.1833 11.7726Z" fill="#DB4D3E"/>
<path id="Vector_3" d="M5.6663 4.12012C5.44118 4.12012 5.32861 4.23268 5.32861 4.45781V9.29802C5.32861 9.52315 5.44118 9.63571 5.6663 9.63571C5.89143 9.63571 6.00399 9.52315 6.00399 9.29802V4.45781C6.00399 4.23268 5.77887 4.12012 5.6663 4.12012Z" fill="white"/>
<path id="Vector_4" d="M12.0809 4.23096C11.8557 4.23096 11.7432 4.34352 11.7432 4.56865V9.40886C11.7432 9.63399 11.9683 9.74655 12.0809 9.74655C12.306 9.74655 12.4185 9.63399 12.4185 9.40886V4.56865C12.5311 4.34352 12.306 4.23096 12.0809 4.23096Z" fill="white"/>
<path id="Vector_5" d="M7.24247 2.76831C7.01735 2.76831 6.90479 2.88087 6.90479 3.106V9.40954C6.90479 9.63466 7.01735 9.74723 7.24247 9.74723C7.4676 9.74723 7.58016 9.63466 7.58016 9.40954V3.106C7.58016 2.88087 7.4676 2.76831 7.24247 2.76831Z" fill="white"/>
<path id="Vector_6" d="M10.5086 2.76831C10.2835 2.76831 10.1709 2.88087 10.1709 3.106V9.40954C10.1709 9.63466 10.2835 9.74723 10.5086 9.74723C10.7337 9.74723 10.8463 9.63466 10.8463 9.40954V3.106C10.8463 2.88087 10.7337 2.76831 10.5086 2.76831Z" fill="white"/>
<path id="Vector_7" d="M8.93193 4.23096C8.7068 4.23096 8.59424 4.34352 8.59424 4.56865V8.28323C8.59424 8.50836 8.7068 8.62092 8.93193 8.62092C9.15705 8.62092 9.26962 8.50836 9.26962 8.28323V4.56865C9.26962 4.34352 9.04449 4.23096 8.93193 4.23096Z" fill="white"/>
</g>
</g>
<defs>
<clipPath id="clip0_0_419">
<rect width="16.3217" height="11.0312" fill="white" transform="translate(0.490723 0.741943)"/>
</clipPath>
</defs>
</svg>
