<svg width="187" height="104" viewBox="0 0 187 104" fill="none" xmlns="http://www.w3.org/2000/svg">
<g id="Group 3182">
<g id="Group 3177">
<path id="Ellipse 26" d="M177.084 93.6598C177.084 82.6734 174.92 71.7947 170.716 61.6446C166.512 51.4945 160.349 42.2719 152.581 34.5034C144.812 26.7349 135.59 20.5725 125.44 16.3682C115.29 12.1639 104.411 10 93.4245 10C82.4381 10 71.5593 12.1639 61.4092 16.3682C51.2592 20.5725 42.0366 26.7349 34.268 34.5034C26.4995 42.2719 20.3372 51.4945 16.1329 61.6446C11.9286 71.7947 9.76465 82.6735 9.76465 93.6598" stroke="#0480DD" stroke-width="19.3657" stroke-linecap="round"/>
<path id="Ellipse 27" d="M177.085 93.6596C177.085 82.6732 174.921 71.7944 170.716 61.6443C166.512 51.4943 160.35 42.2717 152.581 34.5031C144.813 26.7346 135.59 20.5723 125.44 16.368C115.29 12.1637 104.411 9.99976 93.4249 9.99976C82.4385 9.99976 71.5597 12.1637 61.4097 16.368" stroke="#EF403C" stroke-width="19.3657" stroke-linecap="round"/>
</g>
</g>
</svg>
